<svg width="13" height="14" viewBox="0 0 13 14" fill="none"
  xmlns="http://www.w3.org/2000/svg">
  <path d="M12.1293 5.95246L12.7901 6.64613C13.07 6.93985 13.07 7.4148 12.7901 7.70539L7.00607 13.7797C6.72624 14.0734 6.27376 14.0734 5.99691 13.7797L0.209869 7.70539C-0.0699565 7.41167 -0.0699565 6.93673 0.209869 6.64613L0.870735 5.95246C1.15354 5.65562 1.61495 5.66187 1.8918 5.96496L5.30925 9.73016V0.749916C5.30925 0.334338 5.62778 0 6.0237 0H6.9763C7.37222 0 7.69075 0.334338 7.69075 0.749916V9.73016L11.1082 5.96496C11.385 5.65874 11.8465 5.65249 12.1293 5.95246Z" fill="#34AEC3"/>
</svg>
