<svg width="14" height="14" viewBox="0 0 14 14" fill="none"
  xmlns="http://www.w3.org/2000/svg">
  <path d="M7 0C3.13306 0 0 3.13306 0 7C0 10.8669 3.13306 14 7 14C10.8669 14 14 10.8669 14 7C14 3.13306 10.8669 0 7 0ZM11.0645 7.79032C11.0645 7.97661 10.9121 8.12903 10.7258 8.12903H8.12903V10.7258C8.12903 10.9121 7.97661 11.0645 7.79032 11.0645H6.20968C6.02339 11.0645 5.87097 10.9121 5.87097 10.7258V8.12903H3.27419C3.0879 8.12903 2.93548 7.97661 2.93548 7.79032V6.20968C2.93548 6.02339 3.0879 5.87097 3.27419 5.87097H5.87097V3.27419C5.87097 3.0879 6.02339 2.93548 6.20968 2.93548H7.79032C7.97661 2.93548 8.12903 3.0879 8.12903 3.27419V5.87097H10.7258C10.9121 5.87097 11.0645 6.02339 11.0645 6.20968V7.79032Z" fill="#4E4E4E"/>
</svg>
